<svg width="720" height="39" viewBox="0 0 720 39" fill="none" xmlns="http://www.w3.org/2000/svg">
<path d="M3.74038 36L13.7244 13.6H18.8444L28.8604 36H23.4204L15.2284 16.224H17.2764L9.05238 36H3.74038ZM8.73238 31.2L10.1084 27.264H21.6284L23.0364 31.2H8.73238ZM43.4119 33.76V22.88H37.7799L37.6839 25.088C37.6412 26.0053 37.5879 26.88 37.5239 27.712C37.4599 28.544 37.3319 29.3013 37.1399 29.984C36.9692 30.6453 36.7132 31.2107 36.3719 31.68C36.0305 32.128 35.5719 32.4373 34.9959 32.608L30.0679 31.904C30.6865 31.904 31.1879 31.7227 31.5719 31.36C31.9559 30.976 32.2545 30.4533 32.4679 29.792C32.6812 29.1093 32.8412 28.3413 32.9479 27.488C33.0545 26.6133 33.1292 25.696 33.1719 24.736L33.3959 18.784H48.4039V33.76H43.4119ZM29.4919 39.712V31.904H50.8679V39.712H46.2279V36H34.1319V39.712H29.4919ZM64.1534 36.256C62.7027 36.256 61.4334 35.936 60.3454 35.296C59.2574 34.656 58.404 33.6853 57.7854 32.384C57.188 31.0613 56.8894 29.3973 56.8894 27.392C56.8894 25.3653 57.1774 23.7013 57.7534 22.4C58.3294 21.0987 59.1614 20.128 60.2494 19.488C61.3374 18.848 62.6387 18.528 64.1534 18.528C65.7747 18.528 67.2254 18.9013 68.5054 19.648C69.8067 20.3733 70.8307 21.3973 71.5774 22.72C72.3454 24.0427 72.7294 25.6 72.7294 27.392C72.7294 29.2053 72.3454 30.7733 71.5774 32.096C70.8307 33.4187 69.8067 34.4427 68.5054 35.168C67.2254 35.8933 65.7747 36.256 64.1534 36.256ZM53.9774 42.208V18.784H58.7454V22.304L58.6494 27.424L58.9694 32.512V42.208H53.9774ZM63.2894 32.16C64.1214 32.16 64.8574 31.968 65.4974 31.584C66.1587 31.2 66.6814 30.656 67.0654 29.952C67.4707 29.2267 67.6734 28.3733 67.6734 27.392C67.6734 26.3893 67.4707 25.536 67.0654 24.832C66.6814 24.128 66.1587 23.584 65.4974 23.2C64.8574 22.816 64.1214 22.624 63.2894 22.624C62.4574 22.624 61.7107 22.816 61.0494 23.2C60.388 23.584 59.8654 24.128 59.4814 24.832C59.0974 25.536 58.9054 26.3893 58.9054 27.392C58.9054 28.3733 59.0974 29.2267 59.4814 29.952C59.8654 30.656 60.388 31.2 61.0494 31.584C61.7107 31.968 62.4574 32.16 63.2894 32.16ZM84.6441 36.256C82.6815 36.256 80.9535 35.872 79.4601 35.104C77.9881 34.336 76.8468 33.2907 76.0361 31.968C75.2255 30.624 74.8201 29.0987 74.8201 27.392C74.8201 25.664 75.2148 24.1387 76.0041 22.816C76.8148 21.472 77.9135 20.4267 79.3001 19.68C80.6868 18.912 82.2548 18.528 84.0041 18.528C85.6895 18.528 87.2041 18.8907 88.5481 19.616C89.9135 20.32 90.9908 21.344 91.7801 22.688C92.5695 24.0107 92.9641 25.6 92.9641 27.456C92.9641 27.648 92.9535 27.872 92.9321 28.128C92.9108 28.3627 92.8895 28.5867 92.8681 28.8H78.8841V25.888H90.2441L88.3241 26.752C88.3241 25.856 88.1428 25.0773 87.7801 24.416C87.4175 23.7547 86.9161 23.2427 86.2761 22.88C85.6361 22.496 84.8895 22.304 84.0361 22.304C83.1828 22.304 82.4255 22.496 81.7641 22.88C81.1241 23.2427 80.6228 23.7653 80.2601 24.448C79.8975 25.1093 79.7161 25.8987 79.7161 26.816V27.584C79.7161 28.5227 79.9188 29.3547 80.3241 30.08C80.7508 30.784 81.3375 31.328 82.0841 31.712C82.8521 32.0747 83.7481 32.256 84.7721 32.256C85.6895 32.256 86.4895 32.1173 87.1721 31.84C87.8761 31.5627 88.5161 31.1467 89.0921 30.592L91.7481 33.472C90.9588 34.368 89.9668 35.0613 88.7721 35.552C87.5775 36.0213 86.2015 36.256 84.6441 36.256ZM104.983 36.256C103.127 36.256 101.473 35.8827 100.023 35.136C98.572 34.368 97.4306 33.312 96.5986 31.968C95.788 30.624 95.3826 29.0987 95.3826 27.392C95.3826 25.664 95.788 24.1387 96.5986 22.816C97.4306 21.472 98.572 20.4267 100.023 19.68C101.473 18.912 103.127 18.528 104.983 18.528C106.796 18.528 108.375 18.912 109.719 19.68C111.063 20.4267 112.055 21.504 112.695 22.912L108.823 24.992C108.375 24.1813 107.809 23.584 107.127 23.2C106.465 22.816 105.74 22.624 104.951 22.624C104.097 22.624 103.329 22.816 102.647 23.2C101.964 23.584 101.42 24.128 101.015 24.832C100.631 25.536 100.439 26.3893 100.439 27.392C100.439 28.3947 100.631 29.248 101.015 29.952C101.42 30.656 101.964 31.2 102.647 31.584C103.329 31.968 104.097 32.16 104.951 32.16C105.74 32.16 106.465 31.9787 107.127 31.616C107.809 31.232 108.375 30.624 108.823 29.792L112.695 31.904C112.055 33.2907 111.063 34.368 109.719 35.136C108.375 35.8827 106.796 36.256 104.983 36.256ZM132.983 36.256C131.127 36.256 129.473 35.8827 128.023 35.136C126.572 34.368 125.431 33.312 124.599 31.968C123.788 30.624 123.383 29.0987 123.383 27.392C123.383 25.664 123.788 24.1387 124.599 22.816C125.431 21.472 126.572 20.4267 128.023 19.68C129.473 18.912 131.127 18.528 132.983 18.528C134.796 18.528 136.375 18.912 137.719 19.68C139.063 20.4267 140.055 21.504 140.695 22.912L136.823 24.992C136.375 24.1813 135.809 23.584 135.127 23.2C134.465 22.816 133.74 22.624 132.951 22.624C132.097 22.624 131.329 22.816 130.647 23.2C129.964 23.584 129.42 24.128 129.015 24.832C128.631 25.536 128.439 26.3893 128.439 27.392C128.439 28.3947 128.631 29.248 129.015 29.952C129.42 30.656 129.964 31.2 130.647 31.584C131.329 31.968 132.097 32.16 132.951 32.16C133.74 32.16 134.465 31.9787 135.127 31.616C135.809 31.232 136.375 30.624 136.823 29.792L140.695 31.904C140.055 33.2907 139.063 34.368 137.719 35.136C136.375 35.8827 134.796 36.256 132.983 36.256ZM147.377 36V21.728L148.497 22.88H141.553V18.784H158.161V22.88H151.217L152.337 21.728V36H147.377ZM163.252 42.464C162.356 42.464 161.47 42.3253 160.596 42.048C159.721 41.7707 159.006 41.3867 158.452 40.896L160.276 37.344C160.66 37.6853 161.097 37.952 161.588 38.144C162.1 38.336 162.601 38.432 163.092 38.432C163.796 38.432 164.35 38.2613 164.756 37.92C165.182 37.6 165.566 37.056 165.908 36.288L166.804 34.176L167.188 33.632L173.364 18.784H178.164L170.388 37.056C169.833 38.4427 169.193 39.5307 168.468 40.32C167.764 41.1093 166.974 41.664 166.1 41.984C165.246 42.304 164.297 42.464 163.252 42.464ZM166.196 36.672L158.516 18.784H163.668L169.62 33.184L166.196 36.672ZM191.193 33.76V22.88H185.561L185.465 25.088C185.422 26.0053 185.369 26.88 185.305 27.712C185.241 28.544 185.113 29.3013 184.921 29.984C184.75 30.6453 184.494 31.2107 184.153 31.68C183.812 32.128 183.353 32.4373 182.777 32.608L177.849 31.904C178.468 31.904 178.969 31.7227 179.353 31.36C179.737 30.976 180.036 30.4533 180.249 29.792C180.462 29.1093 180.622 28.3413 180.729 27.488C180.836 26.6133 180.91 25.696 180.953 24.736L181.177 18.784H196.185V33.76H191.193ZM177.273 39.712V31.904H198.649V39.712H194.009V36H181.913V39.712H177.273ZM201.791 36V18.784H206.751V29.024L215.135 18.784H219.711V36H214.751V25.76L206.399 36H201.791ZM224.509 36V18.784H229.469V29.024L237.853 18.784H242.429V36H237.469V25.76L229.117 36H224.509ZM258.083 24.768C257.229 24.768 256.493 24.48 255.875 23.904C255.277 23.3067 254.979 22.5493 254.979 21.632C254.979 20.7147 255.277 19.9787 255.875 19.424C256.493 18.848 257.229 18.56 258.083 18.56C258.957 18.56 259.693 18.848 260.291 19.424C260.888 19.9787 261.187 20.7147 261.187 21.632C261.187 22.5493 260.888 23.3067 260.291 23.904C259.693 24.48 258.957 24.768 258.083 24.768ZM258.083 36.256C257.229 36.256 256.493 35.968 255.875 35.392C255.277 34.7947 254.979 34.0373 254.979 33.12C254.979 32.2027 255.277 31.4667 255.875 30.912C256.493 30.336 257.229 30.048 258.083 30.048C258.957 30.048 259.693 30.336 260.291 30.912C260.888 31.4667 261.187 32.2027 261.187 33.12C261.187 34.0373 260.888 34.7947 260.291 35.392C259.693 35.968 258.957 36.256 258.083 36.256ZM273.728 36V18.784H287.52V22.88H277.568L278.688 21.792V36H273.728ZM290.239 36.256C289.386 36.256 288.65 35.968 288.031 35.392C287.434 34.7947 287.135 34.0373 287.135 33.12C287.135 32.2027 287.434 31.4667 288.031 30.912C288.65 30.336 289.386 30.048 290.239 30.048C291.114 30.048 291.85 30.336 292.447 30.912C293.044 31.4667 293.343 32.2027 293.343 33.12C293.343 34.0373 293.044 34.7947 292.447 35.392C291.85 35.968 291.114 36.256 290.239 36.256ZM316.86 36.384C315.132 36.384 313.522 36.1067 312.028 35.552C310.556 34.976 309.276 34.1653 308.188 33.12C307.1 32.0747 306.247 30.848 305.628 29.44C305.031 28.032 304.732 26.4853 304.732 24.8C304.732 23.1147 305.031 21.568 305.628 20.16C306.247 18.752 307.1 17.5253 308.188 16.48C309.298 15.4347 310.588 14.6347 312.06 14.08C313.532 13.504 315.143 13.216 316.892 13.216C318.834 13.216 320.583 13.5573 322.14 14.24C323.719 14.9013 325.042 15.8827 326.108 17.184L322.78 20.256C322.012 19.3813 321.159 18.7307 320.22 18.304C319.282 17.856 318.258 17.632 317.148 17.632C316.103 17.632 315.143 17.8027 314.268 18.144C313.394 18.4853 312.636 18.976 311.996 19.616C311.356 20.256 310.855 21.0133 310.492 21.888C310.151 22.7627 309.98 23.7333 309.98 24.8C309.98 25.8667 310.151 26.8373 310.492 27.712C310.855 28.5867 311.356 29.344 311.996 29.984C312.636 30.624 313.394 31.1147 314.268 31.456C315.143 31.7973 316.103 31.968 317.148 31.968C318.258 31.968 319.282 31.7547 320.22 31.328C321.159 30.88 322.012 30.208 322.78 29.312L326.108 32.384C325.042 33.6853 323.719 34.6773 322.14 35.36C320.583 36.0427 318.823 36.384 316.86 36.384ZM339.313 36V32.64L338.993 31.904V25.888C338.993 24.8213 338.663 23.9893 338.001 23.392C337.361 22.7947 336.369 22.496 335.025 22.496C334.108 22.496 333.201 22.6453 332.305 22.944C331.431 23.2213 330.684 23.6053 330.065 24.096L328.273 20.608C329.212 19.9467 330.343 19.4347 331.665 19.072C332.988 18.7093 334.332 18.528 335.697 18.528C338.321 18.528 340.359 19.1467 341.809 20.384C343.26 21.6213 343.985 23.552 343.985 26.176V36H339.313ZM334.065 36.256C332.721 36.256 331.569 36.032 330.609 35.584C329.649 35.1147 328.913 34.4853 328.401 33.696C327.889 32.9067 327.633 32.0213 327.633 31.04C327.633 30.016 327.879 29.12 328.369 28.352C328.881 27.584 329.681 26.9867 330.769 26.56C331.857 26.112 333.276 25.888 335.025 25.888H339.601V28.8H335.569C334.396 28.8 333.585 28.992 333.137 29.376C332.711 29.76 332.497 30.24 332.497 30.816C332.497 31.456 332.743 31.968 333.233 32.352C333.745 32.7147 334.439 32.896 335.313 32.896C336.145 32.896 336.892 32.704 337.553 32.32C338.215 31.9147 338.695 31.328 338.993 30.56L339.761 32.864C339.399 33.9733 338.737 34.816 337.777 35.392C336.817 35.968 335.58 36.256 334.065 36.256ZM348.322 36V18.784H353.538L360.034 30.56H357.954L364.898 18.784H369.57L369.634 36H365.122V23.904L365.89 24.416L359.97 34.336H357.858L351.906 24.064L352.834 23.84V36H348.322ZM384.72 36V32.64L384.4 31.904V25.888C384.4 24.8213 384.069 23.9893 383.408 23.392C382.768 22.7947 381.776 22.496 380.432 22.496C379.514 22.496 378.608 22.6453 377.712 22.944C376.837 23.2213 376.09 23.6053 375.472 24.096L373.68 20.608C374.618 19.9467 375.749 19.4347 377.072 19.072C378.394 18.7093 379.738 18.528 381.104 18.528C383.728 18.528 385.765 19.1467 387.216 20.384C388.666 21.6213 389.392 23.552 389.392 26.176V36H384.72ZM379.472 36.256C378.128 36.256 376.976 36.032 376.016 35.584C375.056 35.1147 374.32 34.4853 373.808 33.696C373.296 32.9067 373.04 32.0213 373.04 31.04C373.04 30.016 373.285 29.12 373.776 28.352C374.288 27.584 375.088 26.9867 376.176 26.56C377.264 26.112 378.682 25.888 380.432 25.888H385.008V28.8H380.976C379.802 28.8 378.992 28.992 378.544 29.376C378.117 29.76 377.904 30.24 377.904 30.816C377.904 31.456 378.149 31.968 378.64 32.352C379.152 32.7147 379.845 32.896 380.72 32.896C381.552 32.896 382.298 32.704 382.96 32.32C383.621 31.9147 384.101 31.328 384.4 30.56L385.168 32.864C384.805 33.9733 384.144 34.816 383.184 35.392C382.224 35.968 380.986 36.256 379.472 36.256ZM403.872 36.256C402.421 36.256 401.152 35.936 400.064 35.296C398.976 34.656 398.123 33.6853 397.504 32.384C396.907 31.0613 396.608 29.3973 396.608 27.392C396.608 25.3653 396.896 23.7013 397.472 22.4C398.048 21.0987 398.88 20.128 399.968 19.488C401.056 18.848 402.357 18.528 403.872 18.528C405.493 18.528 406.944 18.9013 408.224 19.648C409.525 20.3733 410.549 21.3973 411.296 22.72C412.064 24.0427 412.448 25.6 412.448 27.392C412.448 29.2053 412.064 30.7733 411.296 32.096C410.549 33.4187 409.525 34.4427 408.224 35.168C406.944 35.8933 405.493 36.256 403.872 36.256ZM393.696 42.208V18.784H398.464V22.304L398.368 27.424L398.688 32.512V42.208H393.696ZM403.008 32.16C403.84 32.16 404.576 31.968 405.216 31.584C405.877 31.2 406.4 30.656 406.784 29.952C407.189 29.2267 407.392 28.3733 407.392 27.392C407.392 26.3893 407.189 25.536 406.784 24.832C406.4 24.128 405.877 23.584 405.216 23.2C404.576 22.816 403.84 22.624 403.008 22.624C402.176 22.624 401.429 22.816 400.768 23.2C400.107 23.584 399.584 24.128 399.2 24.832C398.816 25.536 398.624 26.3893 398.624 27.392C398.624 28.3733 398.816 29.2267 399.2 29.952C399.584 30.656 400.107 31.2 400.768 31.584C401.429 31.968 402.176 32.16 403.008 32.16ZM425.97 36V32.64L425.65 31.904V25.888C425.65 24.8213 425.319 23.9893 424.658 23.392C424.018 22.7947 423.026 22.496 421.682 22.496C420.764 22.496 419.858 22.6453 418.962 22.944C418.087 23.2213 417.34 23.6053 416.722 24.096L414.93 20.608C415.868 19.9467 416.999 19.4347 418.322 19.072C419.644 18.7093 420.988 18.528 422.354 18.528C424.978 18.528 427.015 19.1467 428.466 20.384C429.916 21.6213 430.642 23.552 430.642 26.176V36H425.97ZM420.722 36.256C419.378 36.256 418.226 36.032 417.266 35.584C416.306 35.1147 415.57 34.4853 415.058 33.696C414.546 32.9067 414.29 32.0213 414.29 31.04C414.29 30.016 414.535 29.12 415.026 28.352C415.538 27.584 416.338 26.9867 417.426 26.56C418.514 26.112 419.932 25.888 421.682 25.888H426.258V28.8H422.226C421.052 28.8 420.242 28.992 419.794 29.376C419.367 29.76 419.154 30.24 419.154 30.816C419.154 31.456 419.399 31.968 419.89 32.352C420.402 32.7147 421.095 32.896 421.97 32.896C422.802 32.896 423.548 32.704 424.21 32.32C424.871 31.9147 425.351 31.328 425.65 30.56L426.418 32.864C426.055 33.9733 425.394 34.816 424.434 35.392C423.474 35.968 422.236 36.256 420.722 36.256ZM434.018 40.928L436.13 33.248L436.834 36.128C435.917 36.128 435.159 35.8613 434.562 35.328C433.986 34.7947 433.698 34.0587 433.698 33.12C433.698 32.1813 433.997 31.4347 434.594 30.88C435.191 30.3253 435.927 30.048 436.802 30.048C437.698 30.048 438.434 30.336 439.01 30.912C439.586 31.4667 439.874 32.2027 439.874 33.12C439.874 33.3973 439.853 33.6747 439.81 33.952C439.767 34.208 439.682 34.528 439.554 34.912C439.447 35.2747 439.266 35.744 439.01 36.32L437.186 40.928H434.018ZM452.416 36V18.784H469.536V36H464.544V21.76L465.664 22.88H456.256L457.376 21.76V36H452.416ZM484.466 36.256C483.015 36.256 481.746 35.936 480.658 35.296C479.57 34.656 478.717 33.6853 478.098 32.384C477.501 31.0613 477.202 29.3973 477.202 27.392C477.202 25.3653 477.49 23.7013 478.066 22.4C478.642 21.0987 479.474 20.128 480.562 19.488C481.65 18.848 482.951 18.528 484.466 18.528C486.087 18.528 487.538 18.9013 488.818 19.648C490.119 20.3733 491.143 21.3973 491.89 22.72C492.658 24.0427 493.042 25.6 493.042 27.392C493.042 29.2053 492.658 30.7733 491.89 32.096C491.143 33.4187 490.119 34.4427 488.818 35.168C487.538 35.8933 486.087 36.256 484.466 36.256ZM474.29 42.208V18.784H479.058V22.304L478.962 27.424L479.282 32.512V42.208H474.29ZM483.602 32.16C484.434 32.16 485.17 31.968 485.81 31.584C486.471 31.2 486.994 30.656 487.378 29.952C487.783 29.2267 487.986 28.3733 487.986 27.392C487.986 26.3893 487.783 25.536 487.378 24.832C486.994 24.128 486.471 23.584 485.81 23.2C485.17 22.816 484.434 22.624 483.602 22.624C482.77 22.624 482.023 22.816 481.362 23.2C480.701 23.584 480.178 24.128 479.794 24.832C479.41 25.536 479.218 26.3893 479.218 27.392C479.218 28.3733 479.41 29.2267 479.794 29.952C480.178 30.656 480.701 31.2 481.362 31.584C482.023 31.968 482.77 32.16 483.602 32.16ZM498.145 36.256C497.292 36.256 496.556 35.968 495.937 35.392C495.34 34.7947 495.041 34.0373 495.041 33.12C495.041 32.2027 495.34 31.4667 495.937 30.912C496.556 30.336 497.292 30.048 498.145 30.048C499.02 30.048 499.756 30.336 500.353 30.912C500.95 31.4667 501.249 32.2027 501.249 33.12C501.249 34.0373 500.95 34.7947 500.353 35.392C499.756 35.968 499.02 36.256 498.145 36.256ZM514.399 36.352C514.015 36.352 513.609 36.32 513.183 36.256C512.777 36.192 512.329 36.1067 511.839 36L512.159 31.616C512.457 31.7013 512.767 31.744 513.087 31.744C513.961 31.744 514.644 31.392 515.135 30.688C515.625 29.9627 515.977 28.928 516.191 27.584C516.404 26.24 516.543 24.608 516.607 22.688L516.927 13.6H534.143V36H529.023V16.64L530.207 17.824H520.319L521.375 16.576L521.183 22.496C521.119 24.6933 520.969 26.6453 520.735 28.352C520.5 30.0587 520.137 31.5093 519.647 32.704C519.156 33.8987 518.484 34.8053 517.631 35.424C516.777 36.0427 515.7 36.352 514.399 36.352ZM547.769 36.256C545.806 36.256 544.078 35.872 542.585 35.104C541.113 34.336 539.972 33.2907 539.161 31.968C538.35 30.624 537.945 29.0987 537.945 27.392C537.945 25.664 538.34 24.1387 539.129 22.816C539.94 21.472 541.038 20.4267 542.425 19.68C543.812 18.912 545.38 18.528 547.129 18.528C548.814 18.528 550.329 18.8907 551.673 19.616C553.038 20.32 554.116 21.344 554.905 22.688C555.694 24.0107 556.089 25.6 556.089 27.456C556.089 27.648 556.078 27.872 556.057 28.128C556.036 28.3627 556.014 28.5867 555.993 28.8H542.009V25.888H553.369L551.449 26.752C551.449 25.856 551.268 25.0773 550.905 24.416C550.542 23.7547 550.041 23.2427 549.401 22.88C548.761 22.496 548.014 22.304 547.161 22.304C546.308 22.304 545.55 22.496 544.889 22.88C544.249 23.2427 543.748 23.7653 543.385 24.448C543.022 25.1093 542.841 25.8987 542.841 26.816V27.584C542.841 28.5227 543.044 29.3547 543.449 30.08C543.876 30.784 544.462 31.328 545.209 31.712C545.977 32.0747 546.873 32.256 547.897 32.256C548.814 32.256 549.614 32.1173 550.297 31.84C551.001 31.5627 551.641 31.1467 552.217 30.592L554.873 33.472C554.084 34.368 553.092 35.0613 551.897 35.552C550.702 36.0213 549.326 36.256 547.769 36.256ZM559.916 36V18.784H564.876V25.504H572.364V18.784H577.356V36H572.364V29.568H564.876V36H559.916ZM582.134 36V18.784H587.094V29.024L595.478 18.784H600.054V36H595.094V25.76L586.742 36H582.134ZM604.853 36V18.784H609.813V25.504H617.301V18.784H622.293V36H617.301V29.568H609.813V36H604.853ZM637.376 36V32.64L637.056 31.904V25.888C637.056 24.8213 636.725 23.9893 636.064 23.392C635.424 22.7947 634.432 22.496 633.088 22.496C632.171 22.496 631.264 22.6453 630.368 22.944C629.493 23.2213 628.747 23.6053 628.128 24.096L626.336 20.608C627.275 19.9467 628.405 19.4347 629.728 19.072C631.051 18.7093 632.395 18.528 633.76 18.528C636.384 18.528 638.421 19.1467 639.872 20.384C641.323 21.6213 642.048 23.552 642.048 26.176V36H637.376ZM632.128 36.256C630.784 36.256 629.632 36.032 628.672 35.584C627.712 35.1147 626.976 34.4853 626.464 33.696C625.952 32.9067 625.696 32.0213 625.696 31.04C625.696 30.016 625.941 29.12 626.432 28.352C626.944 27.584 627.744 26.9867 628.832 26.56C629.92 26.112 631.339 25.888 633.088 25.888H637.664V28.8H633.632C632.459 28.8 631.648 28.992 631.2 29.376C630.773 29.76 630.56 30.24 630.56 30.816C630.56 31.456 630.805 31.968 631.296 32.352C631.808 32.7147 632.501 32.896 633.376 32.896C634.208 32.896 634.955 32.704 635.616 32.32C636.277 31.9147 636.757 31.328 637.056 30.56L637.824 32.864C637.461 33.9733 636.8 34.816 635.84 35.392C634.88 35.968 633.643 36.256 632.128 36.256ZM645.424 40.928L647.536 33.248L648.24 36.128C647.323 36.128 646.566 35.8613 645.968 35.328C645.392 34.7947 645.104 34.0587 645.104 33.12C645.104 32.1813 645.403 31.4347 646 30.88C646.598 30.3253 647.334 30.048 648.208 30.048C649.104 30.048 649.84 30.336 650.416 30.912C650.992 31.4667 651.28 32.2027 651.28 33.12C651.28 33.3973 651.259 33.6747 651.216 33.952C651.174 34.208 651.088 34.528 650.96 34.912C650.854 35.2747 650.672 35.744 650.416 36.32L648.592 40.928H645.424ZM666.126 36V15.52L668.366 17.76H661.646V13.6H671.31V36H666.126ZM682.465 36.384C680.908 36.384 679.361 36.1813 677.825 35.776C676.289 35.3493 674.988 34.752 673.921 33.984L675.937 30.016C676.79 30.6347 677.782 31.1253 678.913 31.488C680.044 31.8507 681.185 32.032 682.337 32.032C683.638 32.032 684.662 31.776 685.409 31.264C686.156 30.752 686.529 30.048 686.529 29.152C686.529 28.2987 686.198 27.6267 685.537 27.136C684.876 26.6453 683.809 26.4 682.337 26.4H679.969V22.976L686.209 15.904L686.785 17.76H675.041V13.6H690.721V16.96L684.513 24.032L681.889 22.528H683.393C686.145 22.528 688.225 23.1467 689.633 24.384C691.041 25.6213 691.745 27.2107 691.745 29.152C691.745 30.4107 691.414 31.5947 690.753 32.704C690.092 33.792 689.078 34.6773 687.713 35.36C686.348 36.0427 684.598 36.384 682.465 36.384ZM695.675 36V13.6H713.755V17.728H700.827V22.336H707.035C709.744 22.336 711.803 22.9013 713.211 24.032C714.64 25.1627 715.355 26.8053 715.355 28.96C715.355 31.1787 714.565 32.9067 712.987 34.144C711.408 35.3813 709.179 36 706.299 36H695.675ZM700.827 32.16H706.011C707.333 32.16 708.347 31.904 709.051 31.392C709.755 30.8587 710.107 30.0907 710.107 29.088C710.107 27.1253 708.741 26.144 706.011 26.144H700.827V32.16Z" fill="white"/>
</svg>
